<?xml version="1.0" ?><svg enable-background="new 0 0 512 512" id="Layer_1" version="1.1" viewBox="0 0 512 512" xml:space="preserve" xmlns="http://www.w3.org/2000/svg" xmlns:xlink="http://www.w3.org/1999/xlink"><g><g><linearGradient gradientUnits="userSpaceOnUse" id="SVGID_1_" x1="0.0000083" x2="512" y1="256" y2="256"><stop offset="0" style="stop-color:#F67950"/><stop offset="1" style="stop-color:#F15A29"/></linearGradient><circle cx="256" cy="256" fill="url(#SVGID_1_)" r="256"/><linearGradient gradientUnits="userSpaceOnUse" id="SVGID_2_" x1="42.6666756" x2="469.333313" y1="256.0005188" y2="256.0005188"><stop offset="0" style="stop-color:#F15A29"/><stop offset="1" style="stop-color:#F67950"/></linearGradient><path d="M256,469.3338623c-117.6309204,0-213.3333282-95.7018738-213.3333282-213.3333435    c0-117.6309204,95.7024078-213.333313,213.3333282-213.333313c117.636261,0,213.333313,95.7024002,213.333313,213.333313    C469.333313,373.6319885,373.636261,469.3338623,256,469.3338623z" fill="url(#SVGID_2_)"/></g><g><path d="M215.5632172,384h96.8751678v-82.6757202h-96.8751678V384z M232.6442566,313.1264038h62.7098694v10    h-62.7098694V313.1264038z M232.6442566,334.883728h62.7098694v10h-62.7098694V334.883728z M232.6442566,356.6463928h62.7098694    v10h-62.7098694V356.6463928z" opacity="0.3"/><polygon opacity="0.3" points="284.5098572,149.0074615 284.5098572,171.988266 307.4458923,171.988266   "/><polygon opacity="0.3" points="312.438385,181.988266 274.5098572,181.988266 274.5098572,144 215.5632172,144     215.5632172,226.0144043 312.438385,226.0144043   "/><path d="M374,204.6954651h-51.5610657v21.3264008h10.3125305v10H195.2517242v-10H205.56427v-21.3264008h-51.5642548    c-5.5226746,0-10,4.4783936-10,10v113.3242798c0,5.522644,4.4773254,10,10,10H205.56427v-36.6853333h-10.3125458v-10h137.4997406    v10h-10.3125305v36.6853333H374c5.5226746,0,10-4.477356,10-10V214.6954651    C384,209.1738586,379.5226746,204.6954651,374,204.6954651z M167.5077362,264.8885193h-1.4991913c-2.7637329,0-5-2.2357178-5-5    c0-2.7631836,2.2362671-4.9999847,5-4.9999847h1.4991913c2.7632141,0,5,2.2368011,5,4.9999847    C172.5077362,262.6528015,170.2709503,264.8885193,167.5077362,264.8885193z M189.0063934,264.8885193h-1.4986572    c-2.764267,0-5-2.2357178-5-5c0-2.7631836,2.235733-4.9999847,5-4.9999847h1.4986572c2.7637329,0,5,2.2368011,5,4.9999847    C194.0063934,262.6528015,191.7701263,264.8885193,189.0063934,264.8885193z" opacity="0.3"/></g><g><path d="M207.5632172,376h96.8751678v-82.6757202h-96.8751678V376z M224.6442566,305.1264038h62.7098694v10    h-62.7098694V305.1264038z M224.6442566,326.883728h62.7098694v10h-62.7098694V326.883728z M224.6442566,348.6463928h62.7098694    v10h-62.7098694V348.6463928z" fill="#FFFFFF"/><polygon fill="#FFFFFF" points="276.5098572,141.0074615 276.5098572,163.988266 299.4458923,163.988266   "/><polygon fill="#FFFFFF" points="304.438385,173.988266 266.5098572,173.988266 266.5098572,136 207.5632172,136     207.5632172,218.0144043 304.438385,218.0144043   "/><path d="M366,196.6954651h-51.5610657v21.3264008h10.3125305v10H187.2517242v-10H197.56427v-21.3264008    h-51.5642548c-5.5226746,0-10,4.4783936-10,10v113.3242798c0,5.522644,4.4773254,10,10,10H197.56427v-36.6853333h-10.3125458v-10    h137.4997406v10h-10.3125305v36.6853333H366c5.5226746,0,10-4.477356,10-10V206.6954651    C376,201.1738586,371.5226746,196.6954651,366,196.6954651z M159.5077362,256.8885193h-1.4991913    c-2.7637329,0-5-2.2357178-5-4.9999847c0-2.7631989,2.2362671-5,5-5h1.4991913c2.7632141,0,5,2.2368011,5,5    C164.5077362,254.6528015,162.2709503,256.8885193,159.5077362,256.8885193z M181.0063934,256.8885193h-1.4986572    c-2.764267,0-5-2.2357178-5-4.9999847c0-2.7631989,2.235733-5,5-5h1.4986572c2.7637329,0,5,2.2368011,5,5    C186.0063934,254.6528015,183.7701263,256.8885193,181.0063934,256.8885193z" fill="#FFFFFF"/></g></g></svg>